<svg width="35" height="28" viewBox="0 0 35 28" fill="none" xmlns="http://www.w3.org/2000/svg">
<path d="M11.2766 22.6399H11.2782C11.2796 22.6399 11.2809 22.6396 11.2823 22.6396H29.8731C30.3308 22.6396 30.7332 22.3055 30.859 21.8213L34.9605 6.025C35.0489 5.68445 34.987 5.31834 34.7934 5.03568C34.5995 4.75301 34.2964 4.58671 33.9747 4.58671H8.91183L8.17884 0.957031C8.07443 0.440773 7.6584 0.0734863 7.17775 0.0734863H1.02539C0.459023 0.0734863 0 0.578579 0 1.20179C0 1.825 0.459023 2.3301 1.02539 2.3301H6.3553C6.48507 2.97329 9.86299 19.6998 10.0574 20.6621C8.96764 21.1834 8.20314 22.379 8.20314 23.7679C8.20314 25.6343 9.58315 27.1528 11.2793 27.1528H29.8731C30.4395 27.1528 30.8985 26.6477 30.8985 26.0245C30.8985 25.4013 30.4395 24.8962 29.8731 24.8962H11.2793C10.714 24.8962 10.2539 24.3899 10.2539 23.7679C10.2539 23.1467 10.7124 22.6413 11.2766 22.6399ZM32.6152 6.84332L29.0995 20.383H12.1018L9.36739 6.84332H32.6152Z" fill="white"/>
</svg>
