<svg width="35" height="36" viewBox="0 0 35 36" fill="none" xmlns="http://www.w3.org/2000/svg">
<path d="M23.625 13.4594C21.358 14.6717 19.2918 16.2288 17.5 18.0754C15.7174 16.2183 13.6495 14.6598 11.375 13.4594C11.795 8.59761 13.86 3.82363 17.605 0.067627C21.315 3.78853 23.2925 8.56251 23.625 13.4594ZM17.5 23.6743C21.2625 17.9174 27.685 14.1088 35 14.1088C35 31.6602 18.69 34.9598 17.5 35.1704C16.31 34.9774 0 31.6602 0 14.1088C7.315 14.1088 13.7375 17.9174 17.5 23.6743ZM17.5875 5.66653C16.4325 7.49187 15.6275 9.51028 15.19 11.6165L17.5 13.3189L19.8625 11.5989C19.46 9.49273 18.69 7.47432 17.5875 5.66653ZM17.5 31.6075C17.5 31.6075 28 29.905 31.045 18.0578C21 21.1293 17.5 30.0805 17.5 30.0805C17.5 30.0805 12.25 19.3742 3.955 18.0754C7 29.905 17.5 31.6075 17.5 31.6075Z" fill="#E5E5E5"/>
</svg>
